<?xml version="1.0" encoding="UTF-8" standalone="no"?><svg xmlns="http://www.w3.org/2000/svg" xmlns:xlink="http://www.w3.org/1999/xlink" contentScriptType="application/ecmascript" contentStyleType="text/css" height="749px" preserveAspectRatio="none" style="width:630px;height:749px;background:#FFFFFF;" version="1.1" viewBox="0 0 630 749" width="630px" zoomAndPan="magnify"><defs><filter height="300%" id="fx1fkpjtzl5t7" width="300%" x="-1" y="-1"><feGaussianBlur result="blurOut" stdDeviation="2.0"/><feColorMatrix in="blurOut" result="blurOut2" type="matrix" values="0 0 0 0 0 0 0 0 0 0 0 0 0 0 0 0 0 0 .4 0"/><feOffset dx="4.0" dy="4.0" in="blurOut2" result="blurOut3"/><feBlend in="SourceGraphic" in2="blurOut3" mode="normal"/></filter></defs><g><!--MD5=[b11deadbce0bfcec5677b3eb42f4bda1]
class MemberOfParliament--><rect codeLine="30" fill="#FEFECE" filter="url(#fx1fkpjtzl5t7)" height="73.9102" id="MemberOfParliament" style="stroke:#A80036;stroke-width:1.5;" width="164" x="68.2" y="259"/><ellipse cx="87.7" cy="275" fill="#ADD1B2" rx="11" ry="11" style="stroke:#A80036;stroke-width:1.0;"/><path d="M90.1731,281.1431 Q89.5921,281.4419 88.9529,281.5913 Q88.3138,281.7407 87.6082,281.7407 Q85.1014,281.7407 83.7815,280.0889 Q82.4617,278.437 82.4617,275.3159 Q82.4617,272.1865 83.7815,270.5347 Q85.1014,268.8828 87.6082,268.8828 Q88.3138,268.8828 88.9612,269.0322 Q89.6087,269.1816 90.1731,269.4805 L90.1731,272.2031 Q89.5423,271.6221 88.9488,271.3523 Q88.3553,271.0825 87.7244,271.0825 Q86.3797,271.0825 85.6949,272.1492 Q85.0101,273.2158 85.0101,275.3159 Q85.0101,277.4077 85.6949,278.4744 Q86.3797,279.541 87.7244,279.541 Q88.3553,279.541 88.9488,279.2712 Q89.5423,279.0015 90.1731,278.4204 Z " fill="#000000"/><text fill="#000000" font-family="sans-serif" font-size="12" lengthAdjust="spacing" textLength="122" x="102.7" y="279.5352">MemberOfParliament</text><line style="stroke:#A80036;stroke-width:1.5;" x1="69.2" x2="231.2" y1="291" y2="291"/><line style="stroke:#A80036;stroke-width:1.5;" x1="69.2" x2="231.2" y1="299" y2="299"/><ellipse cx="79.2" cy="310" fill="#84BE84" rx="3" ry="3" style="stroke:#038048;stroke-width:1.0;"/><text fill="#000000" font-family="sans-serif" font-size="11" lengthAdjust="spacing" textLength="138" x="88.2" y="313.6348">debate(topic: String): void</text><ellipse cx="79.2" cy="322.9551" fill="#84BE84" rx="3" ry="3" style="stroke:#038048;stroke-width:1.0;"/><text fill="#000000" font-family="sans-serif" font-size="11" lengthAdjust="spacing" textLength="79" x="88.2" y="326.5898">vote(): Boolean</text><!--MD5=[6ba01950a6a73114ec15b115dba23a29]
class Politician--><rect codeLine="19" fill="#FEFECE" filter="url(#fx1fkpjtzl5t7)" height="99.8203" id="Politician" style="stroke:#A80036;stroke-width:1.5;" width="176" x="28.2" y="33"/><ellipse cx="86.95" cy="49" fill="#A9DCDF" rx="11" ry="11" style="stroke:#A80036;stroke-width:1.0;"/><path d="M86.8133,44.3481 L85.6595,49.4199 L87.9754,49.4199 Z M85.3191,42.1069 L88.3157,42.1069 L91.6609,54.5 L89.2122,54.5 L88.4485,51.437 L85.1697,51.437 L84.4227,54.5 L81.9739,54.5 Z " fill="#000000"/><text fill="#000000" font-family="sans-serif" font-size="12" font-style="italic" lengthAdjust="spacing" textLength="50" x="107.45" y="53.5352">Politician</text><line style="stroke:#A80036;stroke-width:1.5;" x1="29.2" x2="203.2" y1="65" y2="65"/><polygon fill="none" points="39.2,71,43.2,75,39.2,79,35.2,75" style="stroke:#B38D22;stroke-width:1.0;"/><text fill="#000000" font-family="sans-serif" font-size="11" lengthAdjust="spacing" textLength="67" x="48.2" y="79.6348">name: String</text><line style="stroke:#A80036;stroke-width:1.5;" x1="29.2" x2="203.2" y1="85.9551" y2="85.9551"/><ellipse cx="39.2" cy="96.9551" fill="#84BE84" rx="3" ry="3" style="stroke:#038048;stroke-width:1.0;"/><text fill="#000000" font-family="sans-serif" font-size="11" font-style="italic" lengthAdjust="spacing" textLength="138" x="48.2" y="100.5898">debate(topic: String): void</text><ellipse cx="39.2" cy="109.9102" fill="#84BE84" rx="3" ry="3" style="stroke:#038048;stroke-width:1.0;"/><text fill="#000000" font-family="sans-serif" font-size="11" lengthAdjust="spacing" textLength="93" x="48.2" y="113.5449">getName(): String</text><ellipse cx="39.2" cy="122.8652" fill="#84BE84" rx="3" ry="3" style="stroke:#038048;stroke-width:1.0;"/><text fill="#000000" font-family="sans-serif" font-size="11" lengthAdjust="spacing" textLength="150" x="48.2" y="126.5">setName(name: String): void</text><!--MD5=[26f93b7de467b1433ef2d77c8b014b08]
class Parliament--><rect codeLine="35" fill="#FEFECE" filter="url(#fx1fkpjtzl5t7)" height="151.6406" id="Parliament" style="stroke:#A80036;stroke-width:1.5;" width="211" x="239.7" y="7"/><ellipse cx="310.45" cy="23" fill="#ADD1B2" rx="11" ry="11" style="stroke:#A80036;stroke-width:1.0;"/><path d="M312.9231,29.1431 Q312.3421,29.4419 311.7029,29.5913 Q311.0638,29.7407 310.3582,29.7407 Q307.8514,29.7407 306.5315,28.0889 Q305.2117,26.437 305.2117,23.3159 Q305.2117,20.1865 306.5315,18.5347 Q307.8514,16.8828 310.3582,16.8828 Q311.0638,16.8828 311.7112,17.0322 Q312.3587,17.1816 312.9231,17.4805 L312.9231,20.2031 Q312.2923,19.6221 311.6988,19.3523 Q311.1053,19.0825 310.4744,19.0825 Q309.1297,19.0825 308.4449,20.1492 Q307.7601,21.2158 307.7601,23.3159 Q307.7601,25.4077 308.4449,26.4744 Q309.1297,27.541 310.4744,27.541 Q311.1053,27.541 311.6988,27.2712 Q312.2923,27.0015 312.9231,26.4204 Z " fill="#000000"/><text fill="#000000" font-family="sans-serif" font-size="12" lengthAdjust="spacing" textLength="61" x="330.95" y="27.5352">Parliament</text><line style="stroke:#A80036;stroke-width:1.5;" x1="240.7" x2="449.7" y1="39" y2="39"/><rect fill="none" height="6" style="stroke:#C82930;stroke-width:1.0;" width="6" x="247.7" y="47"/><text fill="#000000" font-family="sans-serif" font-size="11" lengthAdjust="spacing" text-decoration="underline" textLength="119" x="259.7" y="53.6348">parliament: Parliament</text><rect fill="none" height="6" style="stroke:#C82930;stroke-width:1.0;" width="6" x="247.7" y="59.9551"/><text fill="#000000" font-family="sans-serif" font-size="11" lengthAdjust="spacing" textLength="176" x="259.7" y="66.5898">members: MemberOfParliament[]</text><rect fill="none" height="6" style="stroke:#C82930;stroke-width:1.0;" width="6" x="247.7" y="72.9102"/><text fill="#000000" font-family="sans-serif" font-size="11" lengthAdjust="spacing" textLength="96" x="259.7" y="79.5449">pm: PrimeMinister</text><line style="stroke:#A80036;stroke-width:1.5;" x1="240.7" x2="449.7" y1="85.8652" y2="85.8652"/><rect fill="#F24D5C" height="6" style="stroke:#C82930;stroke-width:1.0;" width="6" x="247.7" y="93.8652"/><text fill="#000000" font-family="sans-serif" font-size="11" lengthAdjust="spacing" textLength="64" x="259.7" y="100.5">Parliament()</text><ellipse cx="250.7" cy="109.8203" fill="#84BE84" rx="3" ry="3" style="stroke:#038048;stroke-width:1.0;"/><text fill="#000000" font-family="sans-serif" font-size="11" lengthAdjust="spacing" text-decoration="underline" textLength="135" x="259.7" y="113.4551">getInstance() : Parliament</text><rect fill="#F24D5C" height="6" style="stroke:#C82930;stroke-width:1.0;" width="6" x="247.7" y="119.7754"/><text fill="#000000" font-family="sans-serif" font-size="11" lengthAdjust="spacing" textLength="108" x="259.7" y="126.4102">countMembers(): int</text><ellipse cx="250.7" cy="135.7305" fill="#84BE84" rx="3" ry="3" style="stroke:#038048;stroke-width:1.0;"/><text fill="#000000" font-family="sans-serif" font-size="11" lengthAdjust="spacing" textLength="100" x="259.7" y="139.3652">addMember(): void</text><ellipse cx="250.7" cy="148.6855" fill="#84BE84" rx="3" ry="3" style="stroke:#038048;stroke-width:1.0;"/><text fill="#000000" font-family="sans-serif" font-size="11" lengthAdjust="spacing" textLength="185" x="259.7" y="152.3203">electPrimeMinister(): PrimeMinister</text><!--MD5=[64d65203e0e5ac3f6e483165e2150055]
class PrimeMinister--><rect codeLine="47" fill="#FEFECE" filter="url(#fx1fkpjtzl5t7)" height="151.6406" id="PrimeMinister" style="stroke:#A80036;stroke-width:1.5;" width="239" x="267.7" y="220"/><ellipse cx="343.95" cy="236" fill="#ADD1B2" rx="11" ry="11" style="stroke:#A80036;stroke-width:1.0;"/><path d="M346.4231,242.1431 Q345.8421,242.4419 345.2029,242.5913 Q344.5638,242.7407 343.8582,242.7407 Q341.3514,242.7407 340.0315,241.0889 Q338.7117,239.437 338.7117,236.3159 Q338.7117,233.1865 340.0315,231.5347 Q341.3514,229.8828 343.8582,229.8828 Q344.5638,229.8828 345.2112,230.0322 Q345.8587,230.1816 346.4231,230.4805 L346.4231,233.2031 Q345.7923,232.6221 345.1988,232.3523 Q344.6053,232.0825 343.9744,232.0825 Q342.6297,232.0825 341.9449,233.1492 Q341.2601,234.2158 341.2601,236.3159 Q341.2601,238.4077 341.9449,239.4744 Q342.6297,240.541 343.9744,240.541 Q344.6053,240.541 345.1988,240.2712 Q345.7923,240.0015 346.4231,239.4204 Z " fill="#000000"/><text fill="#000000" font-family="sans-serif" font-size="12" lengthAdjust="spacing" textLength="78" x="364.45" y="240.5352">PrimeMinister</text><line style="stroke:#A80036;stroke-width:1.5;" x1="268.7" x2="505.7" y1="252" y2="252"/><rect fill="none" height="6" style="stroke:#C82930;stroke-width:1.0;" width="6" x="275.7" y="260"/><text fill="#000000" font-family="sans-serif" font-size="11" lengthAdjust="spacing" textLength="122" x="287.7" y="266.6348">parliament : Parliament</text><rect fill="none" height="6" style="stroke:#C82930;stroke-width:1.0;" width="6" x="275.7" y="272.9551"/><text fill="#000000" font-family="sans-serif" font-size="11" lengthAdjust="spacing" textLength="89" x="287.7" y="279.5898">cabinet : Cabinet</text><line style="stroke:#A80036;stroke-width:1.5;" x1="268.7" x2="505.7" y1="285.9102" y2="285.9102"/><ellipse cx="278.7" cy="296.9102" fill="#84BE84" rx="3" ry="3" style="stroke:#038048;stroke-width:1.0;"/><text fill="#000000" font-family="sans-serif" font-size="11" lengthAdjust="spacing" textLength="200" x="287.7" y="300.5449">PrimeMinister(parliament: Parliament)</text><ellipse cx="278.7" cy="309.8652" fill="#84BE84" rx="3" ry="3" style="stroke:#038048;stroke-width:1.0;"/><text fill="#000000" font-family="sans-serif" font-size="11" lengthAdjust="spacing" textLength="113" x="287.7" y="313.5">getCabinet(): Cabinet</text><ellipse cx="278.7" cy="322.8203" fill="#84BE84" rx="3" ry="3" style="stroke:#038048;stroke-width:1.0;"/><text fill="#000000" font-family="sans-serif" font-size="11" lengthAdjust="spacing" textLength="182" x="287.7" y="326.4551">addMinister(ministry: String): void</text><ellipse cx="278.7" cy="335.7754" fill="#84BE84" rx="3" ry="3" style="stroke:#038048;stroke-width:1.0;"/><text fill="#000000" font-family="sans-serif" font-size="11" lengthAdjust="spacing" textLength="213" x="287.7" y="339.4102">removeMinister(minister: Minister): void</text><ellipse cx="278.7" cy="348.7305" fill="#84BE84" rx="3" ry="3" style="stroke:#038048;stroke-width:1.0;"/><text fill="#000000" font-family="sans-serif" font-size="11" lengthAdjust="spacing" textLength="138" x="287.7" y="352.3652">debate(topic: String): void</text><ellipse cx="278.7" cy="361.6855" fill="#84BE84" rx="3" ry="3" style="stroke:#038048;stroke-width:1.0;"/><text fill="#000000" font-family="sans-serif" font-size="11" lengthAdjust="spacing" textLength="76" x="287.7" y="365.3203">order(): String</text><!--MD5=[2db2d98910acf1cfa3d289dc331e3b0e]
class OrderIssuable--><rect codeLine="26" fill="#FEFECE" filter="url(#fx1fkpjtzl5t7)" height="60.9551" id="OrderIssuable" style="stroke:#A80036;stroke-width:1.5;" width="113" x="503.7" y="52.5"/><ellipse cx="518.7" cy="68.5" fill="#B4A7E5" rx="11" ry="11" style="stroke:#A80036;stroke-width:1.0;"/><path d="M515.1277,64.7651 L515.1277,62.6069 L522.5071,62.6069 L522.5071,64.7651 L520.0418,64.7651 L520.0418,72.8418 L522.5071,72.8418 L522.5071,75 L515.1277,75 L515.1277,72.8418 L517.5931,72.8418 L517.5931,64.7651 Z " fill="#000000"/><text fill="#000000" font-family="sans-serif" font-size="12" font-style="italic" lengthAdjust="spacing" textLength="81" x="532.7" y="73.0352">OrderIssuable</text><line style="stroke:#A80036;stroke-width:1.5;" x1="504.7" x2="615.7" y1="84.5" y2="84.5"/><line style="stroke:#A80036;stroke-width:1.5;" x1="504.7" x2="615.7" y1="92.5" y2="92.5"/><ellipse cx="514.7" cy="103.5" fill="#84BE84" rx="3" ry="3" style="stroke:#038048;stroke-width:1.0;"/><text fill="#000000" font-family="sans-serif" font-size="11" lengthAdjust="spacing" textLength="76" x="523.7" y="107.1348">order(): String</text><!--MD5=[1e5b20c0f89f699a9aa633824414fa54]
class Cabinet--><rect codeLine="59" fill="#FEFECE" filter="url(#fx1fkpjtzl5t7)" height="125.7305" id="Cabinet" style="stroke:#A80036;stroke-width:1.5;" width="239" x="110.7" y="433"/><ellipse cx="203.95" cy="449" fill="#ADD1B2" rx="11" ry="11" style="stroke:#A80036;stroke-width:1.0;"/><path d="M206.4231,455.1431 Q205.8421,455.4419 205.2029,455.5913 Q204.5638,455.7407 203.8582,455.7407 Q201.3514,455.7407 200.0315,454.0889 Q198.7117,452.437 198.7117,449.3159 Q198.7117,446.1865 200.0315,444.5347 Q201.3514,442.8828 203.8582,442.8828 Q204.5638,442.8828 205.2112,443.0322 Q205.8587,443.1816 206.4231,443.4805 L206.4231,446.2031 Q205.7923,445.6221 205.1988,445.3523 Q204.6053,445.0825 203.9744,445.0825 Q202.6297,445.0825 201.9449,446.1492 Q201.2601,447.2158 201.2601,449.3159 Q201.2601,451.4077 201.9449,452.4744 Q202.6297,453.541 203.9744,453.541 Q204.6053,453.541 205.1988,453.2712 Q205.7923,453.0015 206.4231,452.4204 Z " fill="#000000"/><text fill="#000000" font-family="sans-serif" font-size="12" lengthAdjust="spacing" textLength="44" x="224.45" y="453.5352">Cabinet</text><line style="stroke:#A80036;stroke-width:1.5;" x1="111.7" x2="348.7" y1="465" y2="465"/><rect fill="none" height="6" style="stroke:#C82930;stroke-width:1.0;" width="6" x="118.7" y="473"/><text fill="#000000" font-family="sans-serif" font-size="11" lengthAdjust="spacing" textLength="96" x="130.7" y="479.6348">pm: PrimeMinister</text><rect fill="none" height="6" style="stroke:#C82930;stroke-width:1.0;" width="6" x="118.7" y="485.9551"/><text fill="#000000" font-family="sans-serif" font-size="11" lengthAdjust="spacing" textLength="107" x="130.7" y="492.5898">ministers: Minister[]</text><line style="stroke:#A80036;stroke-width:1.5;" x1="111.7" x2="348.7" y1="498.9102" y2="498.9102"/><ellipse cx="121.7" cy="509.9102" fill="#84BE84" rx="3" ry="3" style="stroke:#038048;stroke-width:1.0;"/><text fill="#000000" font-family="sans-serif" font-size="11" lengthAdjust="spacing" textLength="145" x="130.7" y="513.5449">Cabinet(pm: PrimeMinister)</text><rect fill="#F24D5C" height="6" style="stroke:#C82930;stroke-width:1.0;" width="6" x="118.7" y="519.8652"/><text fill="#000000" font-family="sans-serif" font-size="11" lengthAdjust="spacing" textLength="108" x="130.7" y="526.5">countMinisters(): int</text><ellipse cx="121.7" cy="535.8203" fill="#84BE84" rx="3" ry="3" style="stroke:#038048;stroke-width:1.0;"/><text fill="#000000" font-family="sans-serif" font-size="11" lengthAdjust="spacing" textLength="193" x="130.7" y="539.4551">addMinister(minister: Minister): void</text><ellipse cx="121.7" cy="548.7754" fill="#84BE84" rx="3" ry="3" style="stroke:#038048;stroke-width:1.0;"/><text fill="#000000" font-family="sans-serif" font-size="11" lengthAdjust="spacing" textLength="213" x="130.7" y="552.4102">removeMinister(minister: Minister): void</text><!--MD5=[f7c134f6cb2168bfd822b2e03c2ee887]
class Minister--><rect codeLine="69" fill="#FEFECE" filter="url(#fx1fkpjtzl5t7)" height="99.8203" id="Minister" style="stroke:#A80036;stroke-width:1.5;" width="164" x="206.2" y="636"/><ellipse cx="261.45" cy="652" fill="#ADD1B2" rx="11" ry="11" style="stroke:#A80036;stroke-width:1.0;"/><path d="M263.9231,658.1431 Q263.3421,658.4419 262.7029,658.5913 Q262.0638,658.7407 261.3582,658.7407 Q258.8514,658.7407 257.5315,657.0889 Q256.2117,655.437 256.2117,652.3159 Q256.2117,649.1865 257.5315,647.5347 Q258.8514,645.8828 261.3582,645.8828 Q262.0638,645.8828 262.7112,646.0322 Q263.3587,646.1816 263.9231,646.4805 L263.9231,649.2031 Q263.2923,648.6221 262.6988,648.3523 Q262.1053,648.0825 261.4744,648.0825 Q260.1297,648.0825 259.4449,649.1492 Q258.7601,650.2158 258.7601,652.3159 Q258.7601,654.4077 259.4449,655.4744 Q260.1297,656.541 261.4744,656.541 Q262.1053,656.541 262.6988,656.2712 Q263.2923,656.0015 263.9231,655.4204 Z " fill="#000000"/><text fill="#000000" font-family="sans-serif" font-size="12" lengthAdjust="spacing" textLength="45" x="281.95" y="656.5352">Minister</text><line style="stroke:#A80036;stroke-width:1.5;" x1="207.2" x2="369.2" y1="668" y2="668"/><rect fill="none" height="6" style="stroke:#C82930;stroke-width:1.0;" width="6" x="214.2" y="676"/><text fill="#000000" font-family="sans-serif" font-size="11" lengthAdjust="spacing" textLength="82" x="226.2" y="682.6348">ministry: String</text><line style="stroke:#A80036;stroke-width:1.5;" x1="207.2" x2="369.2" y1="688.9551" y2="688.9551"/><ellipse cx="217.2" cy="699.9551" fill="#84BE84" rx="3" ry="3" style="stroke:#038048;stroke-width:1.0;"/><text fill="#000000" font-family="sans-serif" font-size="11" lengthAdjust="spacing" textLength="133" x="226.2" y="703.5898">Minister(minister: String)</text><ellipse cx="217.2" cy="712.9102" fill="#84BE84" rx="3" ry="3" style="stroke:#038048;stroke-width:1.0;"/><text fill="#000000" font-family="sans-serif" font-size="11" lengthAdjust="spacing" textLength="138" x="226.2" y="716.5449">debate(topic: String): void</text><ellipse cx="217.2" cy="725.8652" fill="#84BE84" rx="3" ry="3" style="stroke:#038048;stroke-width:1.0;"/><text fill="#000000" font-family="sans-serif" font-size="11" lengthAdjust="spacing" textLength="76" x="226.2" y="729.5">order(): String</text><!--MD5=[f9e7616da11d185a993aad8d7a19613a]
reverse link Politician to MemberOfParliament--><path d="M127.34,153.14 C133.03,188.46 139.72,229.98 144.39,258.94 " fill="none" id="Politician-backto-MemberOfParliament" style="stroke:#A80036;stroke-width:1.0;"/><polygon fill="none" points="120.4,154.06,124.13,133.2,134.22,151.84,120.4,154.06" style="stroke:#A80036;stroke-width:1.0;"/><!--MD5=[78421c2fb3bd9138369feb86864dcea2]
link Parliament to Parliament--><path codeLine="4" d="M450.89,64.04 C471.27,66.28 485.7,72.6 485.7,83 C485.7,92.51 473.64,98.61 456.01,101.29 " fill="none" id="Parliament-to-Parliament" style="stroke:#A80036;stroke-width:1.0;"/><polygon fill="#A80036" points="450.89,101.96,460.3297,104.7693,455.8485,101.317,459.3008,96.8358,450.89,101.96" style="stroke:#A80036;stroke-width:1.0;"/><text fill="#000000" font-family="sans-serif" font-size="13" lengthAdjust="spacing" textLength="24" x="458.7973" y="100.3208">0..1</text><!--MD5=[ffecc2fca6006f376612845b3f14e8b0]
link Parliament to MemberOfParliament--><path codeLine="5" d="M267.4874,168.0946 C267.4874,168.0946 214.29,225.65 192.6,249.12 " fill="none" id="Parliament-MemberOfParliament" style="stroke:#A80036;stroke-width:1.0;"/><polygon fill="#A80036" points="183.66,258.8,192.7081,254.91,187.0555,255.1298,186.8357,249.4772,183.66,258.8" style="stroke:#A80036;stroke-width:1.0;"/><line style="stroke:#A80036;stroke-width:1.0;" x1="187.0555" x2="192.48" y1="255.1298" y2="249.25"/><polygon fill="#A80036" points="275.63,159.28,268.6205,160.9731,267.4874,168.0946,274.4969,166.4015,275.63,159.28" style="stroke:#A80036;stroke-width:1.0;"/><!--MD5=[7fd3b0ed83954b992cf9b36360688a3f]
reverse link Parliament to PrimeMinister--><path codeLine="6" d="M362.79,172.36 C365.93,188.12 369.17,204.4 372.22,219.75 " fill="none" id="Parliament-backto-PrimeMinister" style="stroke:#A80036;stroke-width:1.0;"/><polygon fill="#A80036" points="360.19,159.28,357.4401,165.9462,362.5358,171.0485,365.2857,164.3823,360.19,159.28" style="stroke:#A80036;stroke-width:1.0;"/><!--MD5=[da65193c593025bcaf539657f5b89546]
reverse link Politician to PrimeMinister--><path d="M195.45,145.7 C225.25,168.91 259.46,195.54 290.66,219.84 " fill="none" id="Politician-backto-PrimeMinister" style="stroke:#A80036;stroke-width:1.0;"/><polygon fill="none" points="190.88,151.01,179.4,133.2,199.48,139.97,190.88,151.01" style="stroke:#A80036;stroke-width:1.0;"/><!--MD5=[427bce704adda64640955974a260b020]
reverse link OrderIssuable to PrimeMinister--><path d="M522.88,129.52 C501.27,155.87 473.53,189.7 448.77,219.9 " fill="none" id="OrderIssuable-backto-PrimeMinister" style="stroke:#A80036;stroke-width:1.0;stroke-dasharray:7.0,7.0;"/><polygon fill="none" points="517.69,124.81,535.78,113.78,528.51,133.69,517.69,124.81" style="stroke:#A80036;stroke-width:1.0;"/><!--MD5=[3ae04a7dbb13a9e053f060eb5cdf3fca]
reverse link PrimeMinister to Cabinet--><path codeLine="10" d="M319.35,382.57 C305.96,399.45 292.15,416.87 279.52,432.8 " fill="none" id="PrimeMinister-backto-Cabinet" style="stroke:#A80036;stroke-width:1.0;"/><polygon fill="#A80036" points="327.62,372.14,320.7586,374.3583,320.1672,381.5451,327.0286,379.3268,327.62,372.14" style="stroke:#A80036;stroke-width:1.0;"/><!--MD5=[4c9fbe18a698dd8c664ca49877caf860]
link PrimeMinister to Minister--><path codeLine="11" d="M390.91,372.27 C391.28,425.67 387.18,498.34 367.2,559 C358.8,584.52 344.17,610.11 329.77,631.5 " fill="none" id="PrimeMinister-to-Minister" style="stroke:#A80036;stroke-width:1.0;stroke-dasharray:7.0,7.0;"/><polygon fill="#A80036" points="326.9,635.72,335.2866,630.5562,329.726,631.5952,328.6869,626.0346,326.9,635.72" style="stroke:#A80036;stroke-width:1.0;"/><text fill="#000000" font-family="sans-serif" font-size="13" lengthAdjust="spacing" textLength="52" x="389.2" y="501.0684">«create»</text><!--MD5=[a5ceccf70cb3ea288fa4bdef532130d7]
link Cabinet to Minister--><path codeLine="13" d="M249.35,559.08 C256.5,582.25 264.55,608.35 271.47,630.76 " fill="none" id="Cabinet-to-Minister" style="stroke:#A80036;stroke-width:1.0;stroke-dasharray:7.0,7.0;"/><polygon fill="#A80036" points="273.01,635.78,274.1535,625.9977,271.5235,631.0061,266.5152,628.3761,273.01,635.78" style="stroke:#A80036;stroke-width:1.0;"/><text fill="#000000" font-family="sans-serif" font-size="13" lengthAdjust="spacing" textLength="36" x="263.2" y="602.5684">«use»</text><!--MD5=[a5ceccf70cb3ea288fa4bdef532130d7]
link Cabinet to Minister--><path codeLine="14" d="M242.7159,570.7568 C242.7159,570.7568 248.68,595.13 252.2,606 C254.1,611.87 256.32,617.89 258.7,623.86 " fill="none" id="Cabinet-Minister" style="stroke:#A80036;stroke-width:1.0;"/><polygon fill="#A80036" points="263.77,635.96,263.9808,626.1134,261.8376,631.3485,256.6024,629.2053,263.77,635.96" style="stroke:#A80036;stroke-width:1.0;"/><line style="stroke:#A80036;stroke-width:1.0;" x1="261.8376" x2="258.75" y1="631.3485" y2="623.97"/><polygon fill="#A80036" points="240.17,559.03,237.534,565.742,242.7159,570.7568,245.3519,564.0448,240.17,559.03" style="stroke:#A80036;stroke-width:1.0;"/><!--MD5=[67102cf8fd146d75ec2dfce8711eb457]
reverse link Politician to Minister--><path d="M76.32,150.93 C65.66,172.27 55.61,196.46 50.2,220 C16.18,368.01 6,434.65 93.2,559 C121.2,598.93 166.3,629.26 206.07,650.15 " fill="none" id="Politician-backto-Minister" style="stroke:#A80036;stroke-width:1.0;"/><polygon fill="none" points="70.24,147.46,85.74,133.01,82.63,153.97,70.24,147.46" style="stroke:#A80036;stroke-width:1.0;"/><!--MD5=[e80d1b38370763ec5c4cb3332a7e08d9]
reverse link OrderIssuable to Minister--><path d="M561.29,133.69 C560.83,226.58 547.74,428.89 450.2,559 C427.97,588.65 397.07,615 368.21,635.85 " fill="none" id="OrderIssuable-backto-Minister" style="stroke:#A80036;stroke-width:1.0;stroke-dasharray:7.0,7.0;"/><polygon fill="none" points="554.29,133.59,561.2,113.55,568.29,133.52,554.29,133.59" style="stroke:#A80036;stroke-width:1.0;"/><!--MD5=[89d7d4d92f5d02b15813116ab7ba7c2b]
@startuml

class MemberOfParliament extends Politician

Parliament - -> "0..1" Parliament
Parliament *- -> MemberOfParliament 
Parliament *- - PrimeMinister

class PrimeMinister extends Politician
class PrimeMinister implements OrderIssuable
PrimeMinister *- - Cabinet
PrimeMinister ..> Minister : "<<create>>"

Cabinet ..> Minister : "<<use>>"
Cabinet *- -> Minister

class Minister extends Politician
class Minister implements OrderIssuable

abstract class Politician {
    # name: String
    + {abstract} debate(topic: String): void
    + getName(): String
    + setName(name: String): void
}

interface OrderIssuable {
    + order(): String
}

class MemberOfParliament {
    + debate(topic: String): void
    + vote(): Boolean
}

class Parliament {
    - {static} parliament: Parliament
    - members: MemberOfParliament[]
    - pm: PrimeMinister   

    - Parliament()
    + {static} getInstance() : Parliament
    - countMembers(): int
    + addMember(): void
    + electPrimeMinister(): PrimeMinister
}

class PrimeMinister {
    - parliament : Parliament
    - cabinet : Cabinet

    + PrimeMinister(parliament: Parliament)
    + getCabinet(): Cabinet
    + addMinister(ministry: String): void
    + removeMinister(minister: Minister): void
    + debate(topic: String): void
    + order(): String
}

class Cabinet {
    - pm: PrimeMinister
    - ministers: Minister[]

    + Cabinet(pm: PrimeMinister)
    - countMinisters(): int
    + addMinister(minister: Minister): void
    + removeMinister(minister: Minister): void
}

class Minister {
    - ministry: String
    
    + Minister(minister: String)
    + debate(topic: String): void
    + order(): String
}
@enduml

PlantUML version 1.2022.0(Tue Jan 11 23:16:42 ICT 2022)
(GPL source distribution)
Java Runtime: Java(TM) SE Runtime Environment
JVM: Java HotSpot(TM) 64-Bit Server VM
Default Encoding: UTF-8
Language: en
Country: TH
--></g></svg>